<svg id="Layer_1" data-name="Layer 1" xmlns="http://www.w3.org/2000/svg" viewBox="0 0 658.02 189.22"><defs><style>.cls-1{fill:#949697;}.cls-2{fill:#75bb6a;stroke:#75bb6a;stroke-miterlimit:10;stroke-width:5px;}</style></defs><path class="cls-1" d="M544.17,554.56V720.13a11.83,11.83,0,1,1-23.65,0V578.21a11.82,11.82,0,0,0-11.82-11.82H461.48l-.16,61.48a9.5,9.5,0,0,1-9.5,9.48h-4.64a9.51,9.51,0,0,1-9.51-9.52l.16-61.44H390.46a11.83,11.83,0,0,0-11.83,11.82V720.1a11.83,11.83,0,0,1-11.82,11.83h0A11.83,11.83,0,0,1,355,720.1V554.56a11.83,11.83,0,0,1,11.83-11.82H532.35A11.82,11.82,0,0,1,544.17,554.56ZM496,683.66H472.38a5.9,5.9,0,0,0-5.91,5.91h0a5.91,5.91,0,0,0,5.91,5.91h0a5.91,5.91,0,0,1,5.91,5.91v8.88a5.91,5.91,0,0,0,5.91,5.91h0a5.92,5.92,0,0,0,5.91-5.91V701.4a5.9,5.9,0,0,1,5.91-5.91h0a5.92,5.92,0,0,0,5.91-5.91h0A5.91,5.91,0,0,0,496,683.66Zm-78.6-61.78h0a5.92,5.92,0,0,0-5.91,5.91v11.83a5.91,5.91,0,0,0,5.91,5.91h0a5.9,5.9,0,0,0,5.91-5.91V627.79A5.91,5.91,0,0,0,417.44,621.88ZM445,706.65h0a5.91,5.91,0,0,0,5.91-5.91h0a5.92,5.92,0,0,1,5.91-5.91h0a5.91,5.91,0,0,0,5.91-5.91h0a5.92,5.92,0,0,1,5.91-5.91h0a5.91,5.91,0,0,0,5.91-5.91h0a5.92,5.92,0,0,1,5.91-5.91h0a5.91,5.91,0,0,0,5.91-5.91h0a5.92,5.92,0,0,1,5.91-5.91h0a5.91,5.91,0,0,0,5.91-5.91h0a5.92,5.92,0,0,0-5.91-5.91H409.54a5.92,5.92,0,0,0-5.91,5.91h0a5.91,5.91,0,0,0,5.91,5.91h47.3a5.92,5.92,0,0,1,5.91,5.91h0a5.91,5.91,0,0,1-5.91,5.91h0a5.92,5.92,0,0,0-5.91,5.91h0A5.91,5.91,0,0,1,445,683h0a5.92,5.92,0,0,0-5.91,5.91h0a5.91,5.91,0,0,1-5.91,5.91h0a5.92,5.92,0,0,0-5.91,5.91h0a5.91,5.91,0,0,1-5.91,5.91H419A15.32,15.32,0,0,0,403.63,722v2.41a5.91,5.91,0,0,0,5.91,5.91h82.77a5.91,5.91,0,0,0,5.91-5.91h0a5.92,5.92,0,0,0-5.91-5.91H445a5.91,5.91,0,0,1-5.91-5.91h0A5.92,5.92,0,0,1,445,706.65Zm-27.57-99.52a5.91,5.91,0,1,0,5.91,5.91A5.92,5.92,0,0,0,417.44,607.13Z" transform="translate(-354.98 -542.74)"/><line class="cls-2" x1="216.29" y1="2.07" x2="216.29" y2="187.56"/><text x="-354.98" y="-542.74"/><path class="cls-1" d="M672.05,610.72v-2.3c9.34-.62,9.73-1.1,9.64-9.16l.07-31.39c-9.26,14-23.39,34.88-28.2,42.85h-3.15c-4.57-8.06-16.74-28.15-25.43-42.1-1.88,26.64-2,32.53-2,34.24.11,4.32,2.89,5,10.89,5.56v2.3H606.31v-2.3c6.68-.45,9.49-1.36,10.41-5.64.65-3.21.83-6.3,3.77-34.12.44-4-.65-5.43-10.77-6.06v-2.29h21l24.93,38.4,26.46-38.4H703v2.29c-9.8.75-11,1.44-10.8,7l.55,29.65c.4,8.06.76,8.44,10.78,9.16v2.3Z" transform="translate(-354.98 -542.74)"/><path class="cls-1" d="M708.88,610.72v-2.25c7.09-.48,7.88-.86,7.88-6.17V586.47c0-4.88-.39-5.19-7-5.91v-2a117.65,117.65,0,0,0,17.21-3.05V602.3c0,5.27.74,5.69,8.1,6.17v2.25Zm12.28-42.27c-3.44,0-6.51-2-6.51-4.37,0-2.6,3.07-4.48,6.63-4.48s6.32,1.88,6.32,4.48C727.6,566.41,724.76,568.45,721.16,568.45Z" transform="translate(-354.98 -542.74)"/><path class="cls-1" d="M806.7,597.26c-.8,2.7-3.66,10.24-4.79,13.46H741.53l-1-1.32c15.7-14.77,31.66-30.3,47.58-45.89H766.26c-9.92,0-11.69.52-14.11,3a26,26,0,0,0-4.43,6.54l-3.63-.08c.6-4.16,1.94-11,2.19-14.44h3.19c1.29,1.86,2.72,1.81,6.18,1.81h46.64l.9,1.27c-15.69,15-31.15,30.11-46.81,45.72,3.62.17,10.37.24,18.12.24,14.87,0,18.11-.36,21.36-2.71a28.57,28.57,0,0,0,7.31-8.14Z" transform="translate(-354.98 -542.74)"/><path class="cls-1" d="M835.16,610.67a16.19,16.19,0,0,1-4.9,1c-7.66,0-11.83-3-11.83-9.34v-22.4h-7.86l-.51-.93,3.16-2.38h5.21v-6.5c2.5-1.61,6.26-3.71,8.79-5.31l1.69.24c-.21,3-.35,7.47-.33,11.57h12.87c1,.78.67,2.61-.73,3.31H828.58v19.7c0,6.24,3.7,7.32,6.55,7.32a22.52,22.52,0,0,0,6.78-1.16l1.05,2.16Z" transform="translate(-354.98 -542.74)"/><path class="cls-1" d="M649.06,665.36c-2-5.09-5.26-10.25-16.07-10.25-8.59,0-11.93,4.2-11.93,8.29,0,5.16,4.93,7.84,14.62,11.19,13.58,4.69,19.91,8.34,19.91,15.76,0,8.33-10.65,14.62-25.83,14.62a72.57,72.57,0,0,1-18-2.54,86.91,86.91,0,0,1-3.18-12l3.74-.63C614.66,695,620,702,631.87,702c8.08,0,13-3.71,13-8.74,0-5.71-4.63-8.15-14.71-11.84-12.1-4.4-19.09-8.15-19.09-15.52,0-7.13,8.71-13.63,24.32-13.63a111.41,111.41,0,0,1,15.46,1.46c.46,2.81,1,6.08,1.91,11.09Z" transform="translate(-354.98 -542.74)"/><path class="cls-1" d="M691.79,668.75c14.76,0,25.41,7.52,25.41,17.4,0,12.56-13.77,18.58-25.5,18.58-16.2,0-25.93-8.65-25.93-17.4C665.77,674.82,680.41,668.75,691.79,668.75Zm-1.39,2.72c-6.67,0-12.74,4.38-12.74,13.48,0,9.81,6.15,17,15.22,17,6.66,0,12.43-3.22,12.43-14C705.31,678.58,700,671.47,690.4,671.47Z" transform="translate(-354.98 -542.74)"/><path class="cls-1" d="M742.27,673v22.36c0,5.44,1.3,5.58,10,6.2v2.25H724.1v-2.25c7.28-.5,8-.82,8-5.82V673H724l-.49-.88,2.63-2.43h6v-2a14.61,14.61,0,0,1,1.31-6.18c.9-1.7,2.85-5.42,9.05-9a29.93,29.93,0,0,1,13.1-4.2c4,.09,7.5,1,9.37,2.5a2,2,0,0,1,.55,2.91,6.3,6.3,0,0,1-2.52,2.15,3,3,0,0,1-3.36-.1,18,18,0,0,0-9.51-3.16c-2.93,0-4.46,1-5.54,2.49s-2.31,5.9-2.31,11.2l0,3.4h21.29v-6.34c2.5-1.61,6.26-3.71,8.77-5.3l1.71.22c-.21,2.92-.35,7.32-.33,11.42h12.83c1.22.78.89,2.61-.69,3.31H773.71v19.7c0,6.24,3.87,7.32,6.75,7.32a21.78,21.78,0,0,0,6.67-1.22l1.15,2.22-7.9,2.74a17.18,17.18,0,0,1-5,1c-7.66,0-11.83-3-11.83-9.34V673Z" transform="translate(-354.98 -542.74)"/><path class="cls-1" d="M871.23,671.88c-5.82.63-6.82,1.4-9.27,5.7-3.49,6.2-8.93,16.74-14,27.08h-3.8c-4.56-8.11-9.31-16.06-13.77-23.83-4.29,7.15-9.32,15.45-13.85,23.83h-3.7c-4.23-9.29-8.73-18.53-13.38-27.72-2.05-4.11-3-4.6-8.64-5.06v-2.2h24.94v2.2c-6.88.74-7.39,1.2-5.83,4.57,2.57,5.81,5.54,12,8.21,17.58,4.55-7.72,9.09-15.68,13.42-24H835c4.21,7.87,8.92,16.06,13.71,24.22a176,176,0,0,0,8.15-17.41c1.42-3.83.41-4.32-7.48-5v-2.2h21.86Z" transform="translate(-354.98 -542.74)"/><path class="cls-1" d="M911.75,704.73a11.5,11.5,0,0,1-5.74-1.5,7.14,7.14,0,0,1-2.81-3.38c-4.57,2.07-10.23,4.88-13.56,4.88-8.51,0-14.37-4.68-14.37-9.62,0-3.86,3.05-6.23,9.36-7.73,7-1.64,15.74-3.63,18.3-5v-1.89c0-5.24-3.8-8.25-9.62-8.25a7.92,7.92,0,0,0-5.28,1.74c-1.29,1.11-2,2.79-3,5.05-.62,1.4-1.81,1.94-3.64,1.94-2.34,0-5.39-1.61-5.39-3.52,0-1.15,1.48-2.09,3.85-3.2a63,63,0,0,1,17-5.45,22.8,22.8,0,0,1,10.1,2.12c4.2,2.33,6,5.08,6,9.1v14.69c0,3.59,1.94,4.65,4,4.65a12.59,12.59,0,0,0,4.06-.81l1.17,2.26Zm-8.82-19.61c-2.46.84-7.37,2.32-10,3.11-4.24,1.3-6.79,2.76-6.79,5.59,0,4.15,4.6,6,8.08,6a17.61,17.61,0,0,0,8.68-2.51Z" transform="translate(-354.98 -542.74)"/><path class="cls-1" d="M954,703.8H926.72v-2.25c7.06-.47,7.73-.86,7.73-5.83V679.44c0-4.9-.46-5.16-6.93-5.74v-2a99.07,99.07,0,0,0,17.09-3.14V677c4.25-4.27,9-8.29,14.56-8.29,4.27,0,6.84,1.81,6.84,3.89s-2.25,3.94-4.28,4.69a3.39,3.39,0,0,1-3.11-.2c-1.77-1.15-3.18-2-5.23-2-2.3,0-6.32,2.16-8.78,5.93v14.61c0,5,.62,5.39,9.36,5.89Z" transform="translate(-354.98 -542.74)"/><path class="cls-1" d="M1012.46,697a31.3,31.3,0,0,1-19.51,7.7C978.62,704.73,970,697,970,688c0-5.31,3-10.28,7.72-13.65a29.94,29.94,0,0,1,17.34-5.62c10.27,0,17.93,5.9,17.91,12.14-.09,1.51-.4,2.32-2.16,2.61-2.29.33-17.34,1-30.62,1.31-.2,10,8.79,14.25,17,14.25a25.16,25.16,0,0,0,13.35-3.87ZM992.4,671.74c-5.18,0-10.15,3.39-11.6,9.65,6.15,0,12.24,0,18.7-.23,2,0,2.69-.37,2.69-1.56C1002.3,675.54,998.51,671.74,992.4,671.74Z" transform="translate(-354.98 -542.74)"/><text x="-354.98" y="-542.74"/><line class="cls-2" x1="251.62" y1="80.3" x2="431.8" y2="80.3"/><line class="cls-2" x1="444.53" y1="173.45" x2="658.01" y2="173.45"/></svg>